HIERARCHY
ROOT Hips
{
	OFFSET 0.000000 108.787201 0.000000
	CHANNELS 6 Xposition Yposition Zposition Xrotation Yrotation Zrotation
	JOINT Spine
	{
		OFFSET 0.000000 7.526100 0.589700
		CHANNELS 3 Xrotation Yrotation Zrotation
		JOINT Spine1
		{
			OFFSET 0.000000 12.189598 -0.296600
			CHANNELS 3 Xrotation Yrotation Zrotation
			JOINT Spine2
			{
				OFFSET 0.000000 15.963593 -0.177000
				CHANNELS 3 Xrotation Yrotation Zrotation
				JOINT Neck
				{
					OFFSET 0.000000 27.990097 -5.222700
					CHANNELS 3 Xrotation Yrotation Zrotation
					JOINT Head
					{
						OFFSET 0.000000 13.775101 3.679100
						CHANNELS 3 Xrotation Yrotation Zrotation
						JOINT HeadTop_End
						{
							OFFSET 0.000000 15.552994 1.514600
							CHANNELS 3 Xrotation Yrotation Zrotation
							End Site
							{
								OFFSET 0.000000 15.626572 0.000000
							}
						}
					}
				}
				JOINT LeftShoulder
				{
					OFFSET 7.127400 24.011505 -6.066400
					CHANNELS 3 Xrotation Yrotation Zrotation
					JOINT LeftArm
					{
						OFFSET 9.617100 -3.741608 -3.014900
						CHANNELS 3 Xrotation Yrotation Zrotation
						JOINT LeftForeArm
						{
							OFFSET 25.282101 0.000000 0.000000
							CHANNELS 3 Xrotation Yrotation Zrotation
							JOINT LeftHand
							{
								OFFSET 32.169903 0.000000 0.000000
								CHANNELS 3 Xrotation Yrotation Zrotation
								JOINT LeftHandMiddle1
								{
									OFFSET 15.036400 0.000000 0.000000
									CHANNELS 3 Xrotation Yrotation Zrotation
									JOINT LeftHandMiddle2
									{
										OFFSET 3.014999 0.000000 0.000000
										CHANNELS 3 Xrotation Yrotation Zrotation
										JOINT LeftHandMiddle3
										{
											OFFSET 3.481201 0.000000 0.000000
											CHANNELS 3 Xrotation Yrotation Zrotation
											JOINT LeftHandMiddle4
											{
												OFFSET 3.721100 0.000000 0.000000
												CHANNELS 3 Xrotation Yrotation Zrotation
												End Site
												{
													OFFSET 0.000000 3.721100 -0.000943
												}
											}
										}
									}
								}
								JOINT LeftHandThumb1
								{
									OFFSET 7.101097 -0.603729 5.031653
									CHANNELS 3 Xrotation Yrotation Zrotation
									JOINT LeftHandThumb2
									{
										OFFSET 1.347069 -0.777725 0.777729
										CHANNELS 3 Xrotation Yrotation Zrotation
										JOINT LeftHandThumb3
										{
											OFFSET 2.560364 -1.478226 1.478229
											CHANNELS 3 Xrotation Yrotation Zrotation
											JOINT LeftHandThumb4
											{
												OFFSET 2.726730 -1.574280 1.574277
												CHANNELS 3 Xrotation Yrotation Zrotation
												End Site
												{
													OFFSET 0.000282 3.520187 -0.000535
												}
											}
										}
									}
								}
								JOINT LeftHandIndex1
								{
									OFFSET 14.090698 0.503815 2.813673
									CHANNELS 3 Xrotation Yrotation Zrotation
									JOINT LeftHandIndex2
									{
										OFFSET 3.158096 0.000000 0.000000
										CHANNELS 3 Xrotation Yrotation Zrotation
										JOINT LeftHandIndex3
										{
											OFFSET 3.016296 0.000000 0.000000
											CHANNELS 3 Xrotation Yrotation Zrotation
											JOINT LeftHandIndex4
											{
												OFFSET 2.977798 0.000000 0.000000
												CHANNELS 3 Xrotation Yrotation Zrotation
												End Site
												{
													OFFSET 0.000000 2.977798 -0.000755
												}
											}
										}
									}
								}
								JOINT LeftHandRing1
								{
									OFFSET 14.766502 -0.001434 -3.312500
									CHANNELS 3 Xrotation Yrotation Zrotation
									JOINT LeftHandRing2
									{
										OFFSET 2.923698 0.000000 0.000000
										CHANNELS 3 Xrotation Yrotation Zrotation
										JOINT LeftHandRing3
										{
											OFFSET 2.949203 0.000000 0.000000
											CHANNELS 3 Xrotation Yrotation Zrotation
											JOINT LeftHandRing4
											{
												OFFSET 2.444374 0.000000 0.000000
												CHANNELS 3 Xrotation Yrotation Zrotation
												End Site
												{
													OFFSET -0.195000 2.436584 -0.002108
												}
											}
										}
									}
								}
								JOINT LeftHandPinky1
								{
									OFFSET 12.476501 0.513382 -5.217931
									CHANNELS 3 Xrotation Yrotation Zrotation
									End Site
									{
										OFFSET 0.000000 13.360992 -0.003386
									}
								}
							}
						}
					}
				}
				JOINT RightShoulder
				{
					OFFSET -7.127400 24.011505 -6.066400
					CHANNELS 3 Xrotation Yrotation Zrotation
					JOINT RightArm
					{
						OFFSET -9.617100 -3.741608 -3.014900
						CHANNELS 3 Xrotation Yrotation Zrotation
						JOINT RightForeArm
						{
							OFFSET -25.282101 0.000000 0.000000
							CHANNELS 3 Xrotation Yrotation Zrotation
							JOINT RightHand
							{
								OFFSET -32.169903 0.000000 0.000000
								CHANNELS 3 Xrotation Yrotation Zrotation
								End Site
								{
									OFFSET 0.000000 32.169891 0.000000
								}
							}
						}
					}
				}
			}
		}
	}
	JOINT LeftUpLeg
	{
		OFFSET 9.928400 -2.150398 0.101300
		CHANNELS 3 Xrotation Yrotation Zrotation
		JOINT LeftLeg
		{
			OFFSET 0.320535 -48.761749 0.790900
			CHANNELS 3 Xrotation Yrotation Zrotation
			JOINT LeftFoot
			{
				OFFSET -0.320535 -48.559753 -3.732300
				CHANNELS 3 Xrotation Yrotation Zrotation
				JOINT LeftToeBase
				{
					OFFSET 3.278900 -8.203400 10.883700
					CHANNELS 3 Xrotation Yrotation Zrotation
					JOINT LeftToe_End
					{
						OFFSET 2.222900 -0.243800 10.296400
						CHANNELS 3 Xrotation Yrotation Zrotation
						End Site
						{
							OFFSET 0.000000 10.536441 0.000000
						}
					}
				}
			}
		}
	}
	JOINT RightUpLeg
	{
		OFFSET -9.928400 -2.150398 0.101300
		CHANNELS 3 Xrotation Yrotation Zrotation
		JOINT RightLeg
		{
			OFFSET -0.320565 -48.761753 0.791800
			CHANNELS 3 Xrotation Yrotation Zrotation
			JOINT RightFoot
			{
				OFFSET 0.320565 -48.559750 -3.733200
				CHANNELS 3 Xrotation Yrotation Zrotation
				JOINT RightToeBase
				{
					OFFSET -3.278900 -8.203400 10.883700
					CHANNELS 3 Xrotation Yrotation Zrotation
					JOINT RightToe_End
					{
						OFFSET -2.222900 -0.243800 10.296400
						CHANNELS 3 Xrotation Yrotation Zrotation
						End Site
						{
							OFFSET 0.000000 10.536441 0.000000
						}
					}
				}
			}
		}
	}
}
MOTION
Frames: 5
Frame Time: 0.033333
1.424402 100.698334 -112.163490 -2.218674 2.781724 2.157727 6.637380 -2.765696 0.111215 2.934851 -0.811567 -1.354604 2.964733 -0.746204 -1.329444 -0.454003 -0.799805 3.311160 -18.396392 0.451281 -3.431728 -0.000001 0.000000 -0.000000 0.575624 -0.827662 -9.114500 -0.357112 -13.689475 -59.280318 0.000207 -80.746551 0.000206 -127.202424 8.316282 14.097871 -6.730854 3.639019 -68.429616 3.552730 5.382217 -66.834767 0.082055 -0.978128 9.590511 -0.000002 0.000001 0.000000 17.322225 -37.413994 18.619091 -12.533881 8.749655 -5.074193 -12.770400 4.523686 14.745212 0.000000 -0.000002 0.000003 -8.304925 2.722336 -67.324082 3.992663 5.549069 -71.451094 0.198070 -1.511900 14.925345 -0.000001 0.000001 -0.000000 -2.632374 5.165378 -67.562565 4.126267 5.591911 -72.827329 0.000034 0.021516 -0.209952 0.000001 -0.000003 -0.000003 -0.000000 0.000001 0.000002 8.074207 16.041773 -3.181127 6.912396 11.160881 62.196775 -0.000005 105.932648 -0.000002 -0.000000 0.000002 0.000001 -33.019651 6.463787 -4.656429 16.905804 2.105043 -0.036966 -2.467454 1.137271 -12.582413 -0.451321 0.000005 -0.000002 0.000002 0.000001 0.000000 0.342539 -12.251134 2.739013 34.128748 4.530425 -4.218338 -24.896053 1.493141 -4.111589 -7.326775 -0.000001 -0.000001 -0.000000 -0.000000 -0.000000 
0.979889 100.904701 -115.988434 -2.711654 2.999079 1.536479 7.188220 -2.896916 0.822241 3.184800 -0.856248 -1.224811 3.215258 -0.791064 -1.198998 -0.407765 -0.788937 3.320928 -18.401670 0.602712 -3.454737 -0.000000 -0.000000 0.000000 0.575623 -0.827662 -9.114500 -0.357110 -13.689475 -59.280318 0.000220 -80.746551 0.000207 -127.570052 8.662945 14.170667 -6.730855 3.639017 -68.429616 3.552727 5.382214 -66.834767 0.082051 -0.978126 9.590510 -0.000000 0.000000 -0.000000 17.322224 -37.413990 18.619087 -12.533881 8.749655 -5.074189 -12.770399 4.523686 14.745212 0.000003 -0.000001 0.000002 -8.304926 2.722337 -67.324082 3.992664 5.549069 -71.451094 0.198069 -1.511902 14.925341 -0.000001 -0.000000 -0.000000 -2.632373 5.165378 -67.562565 4.126265 5.591911 -72.827336 0.000033 0.021514 -0.209954 0.000001 -0.000001 -0.000001 0.000001 0.000001 -0.000000 8.074206 16.041775 -3.181128 6.912390 11.160872 62.196768 0.000007 105.932655 0.000000 0.000001 -0.000000 -0.000001 -35.207084 5.412640 -3.897819 21.393910 3.012358 0.372914 -5.858090 1.618028 -13.564562 -0.329392 0.000002 0.000002 0.000002 0.000001 -0.000001 -0.122326 -12.720016 3.842978 32.698568 5.559599 -4.254696 -26.971476 1.555762 -5.054999 -3.209093 -0.000000 0.000001 -0.000000 -0.000000 -0.000000 
0.604058 101.689560 -119.831390 -3.080442 3.575246 0.969375 7.771238 -3.404553 1.500567 3.301505 -1.016978 -1.152369 3.332072 -0.951404 -1.125494 -0.362504 -0.753071 3.345487 -17.999890 0.745849 -2.972902 0.000000 0.000000 -0.000000 0.575625 -0.827662 -9.114499 -0.357110 -13.689474 -59.280318 0.000228 -80.746551 0.000210 -127.845951 8.951706 14.227089 -6.730856 3.639017 -68.429623 3.552730 5.382213 -66.834767 0.082056 -0.978128 9.590512 -0.000001 0.000002 0.000001 17.322225 -37.413994 18.619091 -12.533883 8.749655 -5.074187 -12.770400 4.523685 14.745217 -0.000002 0.000001 -0.000002 -8.304925 2.722333 -67.324082 3.992668 5.549069 -71.451094 0.198068 -1.511902 14.925340 -0.000001 0.000001 0.000000 -2.632375 5.165378 -67.562565 4.126266 5.591910 -72.827329 0.000035 0.021514 -0.209952 -0.000001 -0.000001 -0.000001 0.000000 -0.000001 0.000001 8.074205 16.041775 -3.181127 6.912396 11.160880 62.196775 -0.000001 105.932648 -0.000006 0.000001 0.000000 -0.000001 -36.923572 4.301986 -3.326782 28.373410 3.515234 0.980225 -7.931713 1.982714 -13.348777 -0.179940 -0.000001 0.000002 0.000002 0.000001 -0.000000 -0.895136 -12.843320 4.871441 30.783751 5.199096 -4.285892 -25.912677 1.474627 -5.038867 -0.866421 -0.000000 -0.000000 0.000000 0.000000 -0.000000 
0.313548 102.638298 -123.623009 -3.379907 4.091256 0.575922 8.319504 -3.857976 1.989777 3.292465 -1.162019 -1.137714 3.323033 -1.096042 -1.110133 -0.317869 -0.725019 3.380299 -17.382446 0.834832 -2.314235 -0.000001 0.000000 -0.000000 0.575624 -0.827662 -9.114501 -0.357110 -13.689473 -59.280318 0.000212 -80.746551 0.000220 -128.000873 9.122085 14.258223 -6.730854 3.639016 -68.429616 3.552730 5.382218 -66.834767 0.082053 -0.978124 9.590510 -0.000003 0.000002 0.000001 17.322225 -37.413990 18.619087 -12.533881 8.749654 -5.074191 -12.770396 4.523687 14.745212 -0.000000 -0.000001 -0.000001 -8.304927 2.722334 -67.324082 3.992663 5.549069 -71.451094 0.198070 -1.511903 14.925341 0.000001 -0.000000 -0.000000 -2.632373 5.165378 -67.562565 4.126265 5.591913 -72.827329 0.000037 0.021520 -0.209953 -0.000004 0.000003 0.000000 0.000001 -0.000002 0.000000 8.074207 16.041775 -3.181127 6.912391 11.160871 62.196795 0.000008 105.932648 -0.000002 -0.000002 -0.000002 -0.000004 -37.657825 4.628219 -2.448716 36.252609 2.552183 1.712556 -8.452078 2.205398 -11.907356 -0.088293 -0.000000 0.000005 -0.000000 0.000000 -0.000000 -2.213932 -13.070094 5.481438 29.404832 4.843580 -4.296805 -23.040651 1.415346 -5.044656 -0.169258 -0.000000 0.000000 -0.000000 0.000000 0.000000 
0.164568 103.691483 -127.196724 -3.769996 4.353961 0.659646 8.772038 -4.177633 2.005387 3.221603 -1.254598 -1.214881 3.252101 -1.187901 -1.186902 -0.273944 -0.706915 3.406175 -16.420282 0.908569 -1.620924 -0.000000 -0.000000 -0.000000 0.575624 -0.827662 -9.114498 -0.357111 -13.689472 -59.280318 0.000228 -80.746551 0.000225 -127.989521 9.130466 14.252698 -6.730855 3.639018 -68.429623 3.552727 5.382214 -66.834767 0.082056 -0.978124 9.590512 -0.000001 0.000000 -0.000000 17.322227 -37.413990 18.619089 -12.533881 8.749654 -5.074185 -12.770398 4.523686 14.745214 -0.000000 0.000000 -0.000002 -8.304927 2.722335 -67.324082 3.992666 5.549067 -71.451094 0.198071 -1.511903 14.925343 0.000000 0.000001 -0.000000 -2.632373 5.165381 -67.562572 4.126263 5.591912 -72.827336 0.000038 0.021518 -0.209954 -0.000001 0.000001 -0.000001 0.000001 -0.000001 0.000001 8.074205 16.041773 -3.181127 6.912389 11.160868 62.196775 -0.000001 105.932648 0.000006 0.000000 0.000000 -0.000001 -36.732672 6.027364 -1.416980 43.328931 1.044882 2.506220 -7.611074 2.274070 -9.514153 -0.053191 0.000000 0.000004 -0.000000 -0.000000 0.000001 -3.136723 -12.455501 5.483795 27.326829 4.108906 -3.962164 -19.785991 1.475128 -5.001679 -0.265160 -0.000000 0.000001 -0.000000 0.000000 -0.000000 
